<?xml version="1.0" encoding="UTF-8"?><svg id="Livello_1" xmlns="http://www.w3.org/2000/svg" viewBox="0 0 487.18 894.85"><defs><style>.cls-1{stroke-width:0px;}</style></defs><path class="cls-1" d="m402.78,255.9c0,23.81-4.24,45.89-12.69,66.26-8.46,20.37-20.02,38.08-34.64,53.14-14.63,15.06-31.55,26.89-50.77,35.49-19.21,8.61-39.58,12.91-61.09,12.91s-41.87-4.3-61.09-12.91c-19.21-8.61-36.14-20.44-50.77-35.49-14.62-15.07-26.17-32.77-34.63-53.14-8.46-20.36-12.69-42.44-12.69-66.26,0-21.51,3.15-40.15,9.46-55.93,6.32-15.77,13.2-28.97,20.66-39.59,8.88-12.32,18.93-22.8,30.11-31.4l51.63,49.48c-7.17,5.74-13.63,12.48-19.37,20.22-4.87,6.6-9.31,14.7-13.33,24.31-4.02,9.61-6.03,20.59-6.03,32.91s2.16,23.74,6.45,34.21c4.3,10.47,10.33,19.57,18.06,27.32,7.75,7.75,16.86,13.77,27.34,18.07,10.46,4.3,21.86,6.46,34.2,6.46s23.74-2.16,34.21-6.46c10.47-4.3,19.57-10.32,27.33-18.07,7.73-7.74,13.76-16.84,18.06-27.32,4.3-10.46,6.45-21.86,6.45-34.21,0-8.61-1-16.13-3.01-22.58-2-6.46-4.16-11.83-6.45-16.14-2.87-5.16-6.17-9.46-9.9-12.9h-34.28v47.32h-51.62V122.52h118.18c11.18,9.76,21.22,21.24,30.11,34.42,7.46,11.48,14.34,25.46,20.65,41.95,6.31,16.5,9.47,35.49,9.47,57.01"/><path class="cls-1" d="m400.14,569.12H92.66v-87.46h229.22v-115.21h78.25v202.68"/><path class="cls-1" d="m115.01,640.93c0-1.15-.58-2.03-1.72-2.68-1.14-.64-2.57-1.25-4.28-1.82-1.72-.58-3.59-1.19-5.61-1.86-2.03-.67-3.9-1.57-5.6-2.72-1.72-1.15-3.16-2.65-4.29-4.5-1.15-1.86-1.72-4.24-1.72-7.15,0-1.96.46-3.86,1.36-5.72.9-1.85,2.17-3.5,3.82-4.93s3.64-2.57,5.97-3.43c2.34-.85,4.92-1.28,7.79-1.28,3.05,0,5.67.37,7.86,1.1,2.19.74,4.01,1.57,5.43,2.47,1.67,1.05,3.08,2.24,4.22,3.58l-7.85,8.22c-.67-.72-1.43-1.36-2.29-1.93-.72-.53-1.57-.99-2.57-1.4-1.01-.41-2.12-.6-3.36-.6-1.62,0-2.92.44-3.9,1.32-.97.88-1.47,1.87-1.47,2.97s.58,2.03,1.72,2.68c1.15.65,2.57,1.25,4.29,1.82,1.71.58,3.59,1.2,5.6,1.86,2.03.67,3.9,1.57,5.61,2.72,1.72,1.15,3.15,2.65,4.29,4.5,1.15,1.86,1.72,4.24,1.72,7.15,0,2.24-.46,4.35-1.36,6.33-.91,1.98-2.22,3.72-3.93,5.22-1.72,1.5-3.81,2.7-6.29,3.58-2.47.88-5.28,1.32-8.43,1.32-3.34,0-6.24-.44-8.72-1.32-2.47-.88-4.54-1.87-6.22-2.97-1.95-1.24-3.65-2.66-5.07-4.28l7.85-8.22c.86,1,1.84,1.91,2.94,2.72.95.67,2.08,1.28,3.4,1.82,1.31.55,2.78.83,4.39.83,2.01,0,3.58-.53,4.72-1.61,1.15-1.07,1.72-2.32,1.72-3.75"/><path class="cls-1" d="m160.11,656.3h-12.15l-16.44-50.04h14.65l8.58,30.38,8.93-30.38h11.45l8.93,30.38,8.58-30.38h14.65l-16.44,50.04h-12.15l-9.29-28.95-9.29,28.95"/><path class="cls-1" d="m213.72,606.26h13.58v50.04h-13.58v-50.04"/><path class="cls-1" d="m259.47,640.93c0-1.15-.57-2.03-1.72-2.68-1.15-.64-2.58-1.25-4.29-1.82-1.72-.58-3.59-1.19-5.61-1.86s-3.9-1.57-5.6-2.72c-1.72-1.15-3.15-2.65-4.29-4.5-1.15-1.86-1.72-4.24-1.72-7.15,0-1.96.45-3.86,1.35-5.72.91-1.85,2.19-3.5,3.84-4.93,1.64-1.43,3.62-2.57,5.96-3.43,2.35-.85,4.93-1.28,7.79-1.28,3.05,0,5.66.37,7.86,1.1,2.19.74,4.01,1.57,5.44,2.47,1.66,1.05,3.07,2.24,4.21,3.58l-7.85,8.22c-.67-.72-1.44-1.36-2.29-1.93-.72-.53-1.57-.99-2.57-1.4-1.01-.41-2.12-.6-3.36-.6-1.62,0-2.92.44-3.9,1.32-.97.88-1.46,1.87-1.46,2.97s.57,2.03,1.71,2.68c1.15.65,2.58,1.25,4.29,1.82,1.71.58,3.59,1.2,5.6,1.86,2.03.67,3.9,1.57,5.62,2.72,1.71,1.15,3.14,2.65,4.28,4.5,1.15,1.86,1.72,4.24,1.72,7.15,0,2.24-.46,4.35-1.36,6.33-.91,1.98-2.22,3.72-3.93,5.22-1.71,1.5-3.81,2.7-6.29,3.58-2.47.88-5.29,1.32-8.44,1.32-3.34,0-6.24-.44-8.72-1.32-2.47-.88-4.55-1.87-6.22-2.97-1.96-1.24-3.66-2.66-5.08-4.28l7.85-8.22c.86,1,1.84,1.91,2.93,2.72.96.67,2.1,1.28,3.41,1.82,1.31.55,2.78.83,4.39.83,2,0,3.58-.53,4.72-1.61,1.15-1.07,1.72-2.32,1.72-3.75"/><path class="cls-1" d="m303.07,640.93c0-1.15-.57-2.03-1.72-2.68-1.14-.64-2.57-1.25-4.29-1.82-1.72-.58-3.59-1.19-5.6-1.86-2.03-.67-3.9-1.57-5.61-2.72-1.72-1.15-3.15-2.65-4.28-4.5-1.15-1.86-1.72-4.24-1.72-7.15,0-1.96.46-3.86,1.36-5.72.91-1.85,2.18-3.5,3.83-4.93,1.64-1.43,3.63-2.57,5.97-3.43,2.34-.85,4.93-1.28,7.79-1.28,3.04,0,5.66.37,7.86,1.1,2.19.74,4,1.57,5.43,2.47,1.66,1.05,3.07,2.24,4.22,3.58l-7.86,8.22c-.67-.72-1.43-1.36-2.29-1.93-.71-.53-1.57-.99-2.57-1.4-1.01-.41-2.12-.6-3.35-.6-1.63,0-2.92.44-3.91,1.32-.97.88-1.47,1.87-1.47,2.97s.58,2.03,1.72,2.68c1.15.65,2.58,1.25,4.29,1.82,1.71.58,3.59,1.2,5.61,1.86,2.03.67,3.9,1.57,5.61,2.72s3.14,2.65,4.28,4.5c1.15,1.86,1.72,4.24,1.72,7.15,0,2.24-.45,4.35-1.35,6.33-.91,1.98-2.22,3.72-3.94,5.22-1.71,1.5-3.8,2.7-6.29,3.58-2.48.88-5.28,1.32-8.43,1.32-3.34,0-6.24-.44-8.72-1.32-2.47-.88-4.54-1.87-6.22-2.97-1.96-1.24-3.65-2.66-5.08-4.28l7.86-8.22c.85,1,1.84,1.91,2.93,2.72.96.67,2.09,1.28,3.4,1.82,1.31.55,2.78.83,4.4.83,2,0,3.58-.53,4.72-1.61,1.15-1.07,1.72-2.32,1.72-3.75"/><path class="cls-1" d="m117.15,712.37c1.62,0,2.92-.47,3.9-1.43.97-.95,1.47-2.15,1.47-3.58s-.49-2.62-1.47-3.57c-.97-.96-2.28-1.43-3.9-1.43h-9.29v10.01h9.29Zm-9.29-28.59v8.57h7.51c1.47,0,2.62-.4,3.43-1.21.81-.82,1.22-1.84,1.22-3.08s-.41-2.27-1.25-3.08-1.97-1.21-3.4-1.21h-7.51Zm-13.58,39.31v-50.04h22.52c2.66,0,5.06.37,7.18,1.1,2.12.74,3.92,1.73,5.4,2.97,1.48,1.23,2.61,2.64,3.4,4.22.78,1.57,1.18,3.22,1.18,4.93,0,1.91-.34,3.51-1,4.82-.67,1.32-1.41,2.37-2.22,3.18-.95.96-2.02,1.74-3.22,2.36,1.67.61,3.16,1.47,4.44,2.57,1.09.96,2.12,2.17,3.07,3.65.96,1.47,1.43,3.34,1.43,5.58,0,1.85-.43,3.67-1.28,5.43-.86,1.77-2.09,3.33-3.68,4.68-1.59,1.35-3.52,2.46-5.76,3.28-2.24.84-4.74,1.26-7.5,1.26h-23.95"/><path class="cls-1" d="m173.26,690.22c0-1.43-.48-2.62-1.46-3.58-.98-.95-2.28-1.43-3.9-1.43h-9.29v10.01h9.29c1.62,0,2.91-.47,3.9-1.43.97-.95,1.46-2.15,1.46-3.57Zm-28.23-17.16h23.59c2.67,0,5.12.44,7.35,1.32,2.25.89,4.16,2.1,5.76,3.65,1.59,1.55,2.85,3.36,3.75,5.43.91,2.08,1.36,4.33,1.36,6.76,0,2.72-.44,5-1.32,6.85-.89,1.86-1.87,3.36-2.97,4.51-1.24,1.38-2.67,2.47-4.29,3.28l10.37,18.23h-14.31l-8.57-15.73h-7.15v15.73h-13.58v-50.04"/><path class="cls-1" d="m207.57,698.08c0,2.04.35,3.94,1.08,5.68.71,1.74,1.69,3.25,2.92,4.53,1.24,1.29,2.72,2.29,4.44,3.01,1.71.71,3.54,1.07,5.5,1.07s3.78-.36,5.47-1.07c1.69-.72,3.17-1.72,4.44-3.01,1.26-1.28,2.25-2.79,2.96-4.53.72-1.74,1.07-3.64,1.07-5.68s-.35-3.95-1.07-5.69c-.71-1.73-1.7-3.25-2.96-4.53-1.27-1.28-2.75-2.28-4.44-3-1.69-.72-3.51-1.07-5.47-1.07s-3.79.35-5.5,1.07c-1.72.72-3.2,1.72-4.44,3-1.23,1.28-2.22,2.8-2.92,4.53-.72,1.74-1.08,3.64-1.08,5.69Zm41.82,0c0,3.57-.72,6.96-2.15,10.15s-3.4,6.01-5.9,8.44c-2.5,2.42-5.46,4.35-8.86,5.75-3.41,1.41-7.07,2.11-10.98,2.11s-7.62-.71-11.01-2.11c-3.38-1.41-6.32-3.33-8.83-5.75-2.5-2.43-4.47-5.25-5.9-8.44s-2.15-6.58-2.15-10.15.72-6.96,2.15-10.16c1.43-3.19,3.4-6,5.9-8.43,2.51-2.43,5.45-4.35,8.83-5.76,3.39-1.4,7.05-2.1,11.01-2.1s7.56.71,10.98,2.1c3.41,1.41,6.36,3.33,8.86,5.76,2.5,2.43,4.47,5.24,5.9,8.43,1.43,3.2,2.15,6.58,2.15,10.16"/><path class="cls-1" d="m271.55,710.24v12.86h-13.59v-50.04h13.59v19.29l16.43-19.29h15.73l-17.87,20.73,19.29,29.31h-15.73l-12.51-18.95-5.35,6.09"/><path class="cls-1" d="m349.46,711.66v11.44h-39.31v-50.04h38.6v11.44h-25.02v7.85h19.3v10.73h-19.3v8.58h25.73"/><path class="cls-1" d="m109.11,763.71c0-.97-.25-1.76-.73-2.37-.5-.6-1.14-1.13-1.93-1.55-.79-.43-1.69-.79-2.71-1.09-1.02-.29-2.07-.6-3.14-.91-1.08-.32-2.12-.66-3.14-1.05-1.02-.38-1.91-.88-2.71-1.49s-1.43-1.36-1.93-2.27c-.49-.89-.73-2.01-.73-3.35,0-1.09.22-2.11.69-3.1.47-.98,1.14-1.85,2.02-2.59.88-.74,1.94-1.34,3.18-1.78,1.24-.44,2.63-.66,4.19-.66s2.85.21,3.98.61c1.14.41,2.1.86,2.86,1.35.91.59,1.68,1.24,2.34,1.97l-2.24,2.13c-.47-.54-1.06-1.03-1.75-1.49-.59-.37-1.32-.71-2.16-1.03-.85-.31-1.86-.47-3.03-.47-1.08,0-2.03.15-2.87.42-.84.29-1.53.66-2.1,1.14-.57.47-1,1.01-1.3,1.62-.29.61-.45,1.26-.45,1.94,0,1.28.42,2.28,1.26,2.97.84.69,1.89,1.28,3.16,1.72,1.27.46,2.63.87,4.1,1.24,1.46.37,2.83.86,4.1,1.47s2.32,1.44,3.16,2.47c.84,1.04,1.26,2.44,1.26,4.21,0,1.22-.23,2.35-.7,3.4-.47,1.04-1.14,1.95-2.03,2.72s-2,1.36-3.31,1.79c-1.32.42-2.82.64-4.48.64-1.79,0-3.35-.23-4.68-.7-1.33-.46-2.43-.98-3.29-1.56-1.02-.67-1.87-1.44-2.56-2.31l2.07-2.16c.56.71,1.25,1.32,2.06,1.83.68.48,1.56.91,2.62,1.28,1.06.37,2.32.55,3.78.55,2.35,0,4.14-.52,5.35-1.56,1.22-1.03,1.82-2.36,1.82-3.99"/><path class="cls-1" d="m119.86,741.54h3.36v30.75h-3.36v-30.75"/><path class="cls-1" d="m158.61,741.54v30.75h-2.91l-19.27-24.82v24.82h-3.35v-30.75h2.91l19.27,24.82v-24.82h3.35"/><path class="cls-1" d="m166.4,756.91c0-2.14.42-4.14,1.26-6.02.84-1.86,1.98-3.5,3.45-4.9s3.17-2.5,5.13-3.3c1.96-.79,4.05-1.2,6.29-1.2s4.02.34,5.6.99c1.59.67,2.91,1.39,3.99,2.17,1.22.91,2.28,1.96,3.18,3.11l-2.24,1.91c-.72-.97-1.59-1.82-2.6-2.55-.86-.66-1.96-1.25-3.27-1.78-1.31-.52-2.87-.78-4.66-.78s-3.46.31-5.01.93c-1.55.63-2.91,1.49-4.05,2.6-1.16,1.1-2.06,2.41-2.72,3.91-.66,1.5-.98,3.13-.98,4.89s.33,3.4.98,4.9c.66,1.51,1.56,2.81,2.72,3.91,1.15,1.11,2.5,1.97,4.05,2.6,1.55.62,3.22.93,5.01.93s3.36-.26,4.71-.78,2.47-1.11,3.35-1.77c1.05-.73,1.95-1.59,2.69-2.55l2.24,1.91c-.92,1.18-2.03,2.23-3.31,3.16-1.1.78-2.46,1.49-4.05,2.14s-3.47.97-5.63.97-4.33-.41-6.29-1.2c-1.96-.8-3.66-1.91-5.13-3.3s-2.61-3.03-3.45-4.91c-.84-1.86-1.26-3.87-1.26-6.02"/><path class="cls-1" d="m224.36,769.22v3.08h-21.94v-30.75h21.5v3.08h-18.15v10.1h14.56v3.07h-14.56v11.42h18.59"/><path class="cls-1" d="m246.72,741.54v30.75h-3.36v-24.6h-5.83v-2.02c1.35,0,2.46-.23,3.32-.67.87-.45,1.55-.92,2.06-1.42.57-.59,1.02-1.27,1.34-2.04h2.47"/><path class="cls-1" d="m257.69,751.4c0,1.03.17,1.96.52,2.8.34.84.84,1.55,1.5,2.16.66.59,1.43,1.06,2.33,1.39.89.32,1.91.48,3.04.48s2.11-.16,3.03-.48c.91-.33,1.7-.79,2.35-1.39.66-.6,1.16-1.32,1.5-2.16.34-.84.51-1.78.51-2.8s-.16-1.96-.51-2.79c-.34-.84-.84-1.56-1.5-2.16-.66-.6-1.45-1.06-2.35-1.39-.91-.33-1.92-.49-3.03-.49s-2.16.16-3.04.49c-.9.33-1.67.78-2.33,1.39-.66.59-1.16,1.31-1.5,2.16-.34.84-.52,1.77-.52,2.79Zm7.16,9.91c-1.52,0-2.93-.25-4.21-.75-1.28-.51-2.4-1.2-3.34-2.09-.94-.9-1.67-1.94-2.2-3.15s-.78-2.52-.78-3.92.27-2.72.81-3.92c.53-1.2,1.28-2.24,2.22-3.14.94-.89,2.07-1.59,3.38-2.09,1.32-.51,2.77-.76,4.35-.76s2.99.25,4.33.76c1.32.51,2.47,1.21,3.4,2.11.95.89,1.68,1.95,2.22,3.16.53,1.22.81,2.53.81,3.95,0,.93-.13,1.78-.37,2.58-.24.8-.48,1.49-.75,2.06-.34.7-.71,1.32-1.12,1.87l-9.41,14.31h-3.35l7.39-11.42c-.27.09-.57.16-.9.22-.66.15-1.48.22-2.47.22"/><path class="cls-1" d="m283.93,756.91c0,2.02.26,3.8.78,5.35.53,1.55,1.22,2.84,2.06,3.88.85,1.03,1.83,1.81,2.94,2.34,1.1.53,2.25.78,3.45.78s2.29-.26,3.38-.78,2.06-1.3,2.91-2.34c.84-1.04,1.53-2.33,2.05-3.88.53-1.54.79-3.33.79-5.35s-.27-3.79-.79-5.34c-.52-1.54-1.21-2.84-2.05-3.87-.85-1.03-1.84-1.82-2.93-2.35-1.11-.52-2.24-.78-3.41-.78s-2.3.27-3.41.78c-1.11.53-2.09,1.31-2.94,2.35-.84,1.03-1.53,2.33-2.06,3.87-.52,1.54-.78,3.33-.78,5.34Zm21.73,0c0,2.41-.36,4.56-1.05,6.47-.71,1.92-1.64,3.54-2.78,4.86-1.15,1.34-2.47,2.35-3.98,3.04-1.51.71-3.07,1.05-4.68,1.05s-3.22-.34-4.72-1.05c-1.52-.7-2.85-1.71-4.01-3.04-1.16-1.32-2.1-2.94-2.8-4.86-.71-1.91-1.05-4.06-1.05-6.47s.34-4.55,1.05-6.47c.7-1.91,1.64-3.53,2.8-4.85s2.49-2.35,4.01-3.04c1.5-.7,3.06-1.05,4.68-1.05s3.17.35,4.68,1.05c1.5.7,2.84,1.72,4.01,3.04,1.16,1.33,2.1,2.95,2.8,4.85.69,1.91,1.05,4.07,1.05,6.47"/><path class="cls-1" d="m313.74,751.4c0,1.03.16,1.96.51,2.8.34.84.84,1.55,1.51,2.16.66.59,1.43,1.06,2.33,1.39.9.32,1.91.48,3.04.48s2.11-.16,3.03-.48c.91-.33,1.69-.79,2.35-1.39.66-.6,1.16-1.32,1.49-2.16.35-.84.52-1.78.52-2.8s-.16-1.96-.52-2.79c-.34-.84-.84-1.56-1.49-2.16-.66-.6-1.44-1.06-2.35-1.39s-1.92-.49-3.03-.49-2.15.16-3.04.49-1.67.78-2.33,1.39c-.66.59-1.16,1.31-1.51,2.16-.34.84-.51,1.77-.51,2.79Zm7.16,9.91c-1.53,0-2.93-.25-4.21-.75-1.28-.51-2.4-1.2-3.34-2.09-.95-.9-1.67-1.94-2.2-3.15-.53-1.21-.78-2.52-.78-3.92s.27-2.72.81-3.92c.53-1.2,1.28-2.24,2.22-3.14.94-.89,2.07-1.59,3.38-2.09,1.31-.51,2.77-.76,4.35-.76s2.99.25,4.33.76c1.32.51,2.46,1.21,3.4,2.11.94.89,1.68,1.95,2.22,3.16.54,1.22.82,2.53.82,3.95,0,.93-.13,1.78-.36,2.58-.24.8-.5,1.49-.77,2.06-.33.7-.7,1.32-1.12,1.87l-9.41,14.31h-3.35l7.38-11.42c-.26.09-.56.16-.89.22-.66.15-1.47.22-2.47.22"/><path class="cls-1" d="m386.27,690.22c0-1.43-.49-2.62-1.47-3.58-.97-.95-2.28-1.43-3.9-1.43h-9.29v10.01h9.29c1.62,0,2.92-.47,3.9-1.43.97-.95,1.47-2.15,1.47-3.57Zm-28.24-17.16h23.59c2.66,0,5.12.44,7.36,1.32,2.23.89,4.16,2.1,5.75,3.65,1.6,1.55,2.85,3.36,3.75,5.43.91,2.08,1.36,4.33,1.36,6.76,0,2.72-.44,5-1.32,6.85-.89,1.86-1.87,3.36-2.97,4.51-1.24,1.38-2.67,2.47-4.29,3.28l10.36,18.23h-14.29l-8.57-15.73h-7.16v15.73h-13.58v-50.04"/></svg>