<?xml version="1.0" encoding="UTF-8"?><svg id="Livello_1" xmlns="http://www.w3.org/2000/svg" viewBox="0 0 1080 487.18"><defs><style>.cls-1{fill:#4f5255;}.cls-1,.cls-2{stroke-width:0px;}.cls-2{fill:#007a73;}</style></defs><path class="cls-1" d="m640.92,186.41c0-1.37-.69-2.42-2.05-3.19-1.36-.76-3.06-1.49-5.1-2.17-2.04-.69-4.27-1.42-6.69-2.22-2.41-.8-4.64-1.87-6.68-3.23-2.04-1.37-3.76-3.15-5.11-5.36-1.37-2.22-2.04-5.05-2.04-8.51,0-2.33.54-4.6,1.62-6.82,1.07-2.21,2.59-4.17,4.55-5.87,1.96-1.7,4.33-3.06,7.12-4.09,2.78-1.02,5.86-1.53,9.27-1.53,3.64,0,6.76.44,9.37,1.31,2.61.88,4.78,1.87,6.47,2.94,1.99,1.25,3.67,2.67,5.02,4.26l-9.36,9.8c-.8-.85-1.7-1.62-2.73-2.3-.85-.63-1.87-1.18-3.06-1.66-1.2-.48-2.53-.72-4.01-.72-1.93,0-3.48.52-4.64,1.57-1.16,1.05-1.75,2.23-1.75,3.53s.69,2.42,2.04,3.19c1.37.77,3.06,1.49,5.11,2.17,2.03.69,4.27,1.43,6.68,2.22,2.41.8,4.64,1.87,6.69,3.23,2.04,1.37,3.75,3.15,5.11,5.36,1.37,2.22,2.04,5.05,2.04,8.51,0,2.67-.54,5.19-1.62,7.54-1.08,2.36-2.64,4.43-4.68,6.21-2.04,1.79-4.54,3.21-7.5,4.26-2.95,1.05-6.3,1.57-10.04,1.57-3.97,0-7.44-.52-10.39-1.57-2.95-1.05-5.41-2.23-7.4-3.53-2.32-1.48-4.34-3.17-6.04-5.1l9.36-9.8c1.03,1.19,2.2,2.27,3.5,3.23,1.13.8,2.47,1.52,4.05,2.17,1.56.66,3.31.99,5.23.99,2.39,0,4.26-.64,5.62-1.92,1.37-1.27,2.05-2.76,2.05-4.47"/><path class="cls-1" d="m694.64,204.72h-14.47l-19.58-59.6h17.45l10.22,36.19,10.64-36.19h13.64l10.64,36.19,10.22-36.19h17.45l-19.58,59.6h-14.47l-11.07-34.48-11.07,34.48"/><path class="cls-1" d="m758.5,145.11h16.17v59.6h-16.17v-59.6"/><path class="cls-1" d="m813,186.41c0-1.37-.68-2.42-2.04-3.19-1.37-.76-3.07-1.49-5.11-2.17-2.04-.69-4.27-1.42-6.69-2.22s-4.64-1.87-6.68-3.23c-2.04-1.37-3.75-3.15-5.11-5.36-1.37-2.22-2.04-5.05-2.04-8.51,0-2.33.53-4.6,1.61-6.82,1.09-2.21,2.61-4.17,4.57-5.87,1.95-1.7,4.31-3.06,7.1-4.09,2.79-1.02,5.87-1.53,9.28-1.53,3.64,0,6.75.44,9.37,1.31,2.61.88,4.78,1.87,6.48,2.94,1.98,1.25,3.66,2.67,5.01,4.26l-9.36,9.8c-.8-.85-1.71-1.62-2.73-2.3-.85-.63-1.87-1.18-3.06-1.66-1.2-.48-2.53-.72-4.01-.72-1.93,0-3.48.52-4.64,1.57s-1.74,2.23-1.74,3.53.68,2.42,2.03,3.19c1.37.77,3.07,1.49,5.11,2.17,2.03.69,4.27,1.43,6.68,2.22,2.41.8,4.64,1.87,6.7,3.23,2.03,1.37,3.74,3.15,5.1,5.36,1.37,2.22,2.04,5.05,2.04,8.51,0,2.67-.54,5.19-1.62,7.54-1.08,2.36-2.64,4.43-4.68,6.21-2.03,1.79-4.54,3.21-7.49,4.26-2.95,1.05-6.31,1.57-10.05,1.57-3.97,0-7.44-.52-10.38-1.57s-5.42-2.23-7.4-3.53c-2.33-1.48-4.35-3.17-6.05-5.1l9.36-9.8c1.03,1.19,2.2,2.27,3.49,3.23,1.14.8,2.5,1.52,4.06,2.17,1.56.66,3.31.99,5.23.99,2.38,0,4.26-.64,5.63-1.92,1.37-1.27,2.04-2.76,2.04-4.47"/><path class="cls-1" d="m864.93,186.41c0-1.37-.68-2.42-2.04-3.19-1.36-.76-3.06-1.49-5.11-2.17-2.04-.69-4.27-1.42-6.68-2.22-2.41-.8-4.64-1.87-6.69-3.23-2.04-1.37-3.75-3.15-5.1-5.36-1.37-2.22-2.05-5.05-2.05-8.51,0-2.33.54-4.6,1.62-6.82,1.08-2.21,2.6-4.17,4.56-5.87,1.95-1.7,4.32-3.06,7.11-4.09,2.78-1.02,5.87-1.53,9.28-1.53,3.63,0,6.75.44,9.37,1.31,2.61.88,4.77,1.87,6.47,2.94,1.98,1.25,3.66,2.67,5.02,4.26l-9.37,9.8c-.8-.85-1.7-1.62-2.73-2.3-.84-.63-1.87-1.18-3.06-1.66-1.2-.48-2.53-.72-3.99-.72-1.94,0-3.48.52-4.65,1.57-1.16,1.05-1.75,2.23-1.75,3.53s.69,2.42,2.04,3.19c1.37.77,3.07,1.49,5.11,2.17,2.03.69,4.27,1.43,6.69,2.22,2.41.8,4.64,1.87,6.69,3.23,2.04,1.37,3.74,3.15,5.1,5.36,1.37,2.22,2.04,5.05,2.04,8.51,0,2.67-.53,5.19-1.61,7.54-1.08,2.36-2.65,4.43-4.69,6.21-2.03,1.79-4.53,3.21-7.49,4.26-2.96,1.05-6.3,1.57-10.04,1.57-3.97,0-7.44-.52-10.39-1.57-2.95-1.05-5.41-2.23-7.4-3.53-2.33-1.48-4.34-3.17-6.05-5.1l9.37-9.8c1.02,1.19,2.19,2.27,3.49,3.23,1.14.8,2.49,1.52,4.05,2.17,1.56.66,3.31.99,5.24.99,2.38,0,4.26-.64,5.62-1.92,1.37-1.27,2.04-2.76,2.04-4.47"/><path class="cls-1" d="m643.47,271.51c1.93,0,3.48-.56,4.64-1.7,1.16-1.13,1.75-2.56,1.75-4.26s-.59-3.12-1.75-4.25c-1.16-1.14-2.71-1.7-4.64-1.7h-11.07v11.92h11.07Zm-11.07-34.05v10.21h8.94c1.76,0,3.12-.47,4.09-1.44.97-.98,1.45-2.19,1.45-3.67s-.49-2.7-1.49-3.67c-1-.97-2.34-1.44-4.05-1.44h-8.94Zm-16.17,46.83v-59.6h26.82c3.17,0,6.03.44,8.55,1.31,2.53.88,4.67,2.06,6.43,3.54,1.77,1.47,3.11,3.14,4.05,5.02.93,1.87,1.41,3.83,1.41,5.87,0,2.27-.4,4.18-1.19,5.74-.8,1.57-1.67,2.82-2.65,3.79-1.13,1.14-2.4,2.07-3.83,2.81,1.99.73,3.76,1.76,5.29,3.06,1.3,1.14,2.53,2.59,3.66,4.34,1.14,1.76,1.7,3.97,1.7,6.64,0,2.21-.51,4.37-1.53,6.47-1.03,2.11-2.49,3.96-4.39,5.58-1.9,1.61-4.19,2.93-6.86,3.91-2.67,1-5.65,1.5-8.93,1.5h-28.53"/><path class="cls-1" d="m710.3,245.12c0-1.7-.58-3.12-1.74-4.26-1.17-1.13-2.71-1.7-4.64-1.7h-11.07v11.92h11.07c1.93,0,3.47-.56,4.64-1.7,1.16-1.13,1.74-2.56,1.74-4.25Zm-33.62-20.44h28.1c3.18,0,6.1.52,8.76,1.57,2.68,1.06,4.96,2.51,6.86,4.34,1.9,1.85,3.39,4.01,4.47,6.47,1.08,2.47,1.62,5.16,1.62,8.05,0,3.23-.52,5.96-1.57,8.16-1.06,2.22-2.23,4.01-3.53,5.37-1.48,1.64-3.18,2.95-5.11,3.91l12.35,21.72h-17.05l-10.21-18.74h-8.51v18.74h-16.17v-59.6"/><path class="cls-1" d="m751.18,254.48c0,2.43.42,4.69,1.28,6.77.84,2.07,2.01,3.87,3.48,5.4,1.48,1.54,3.25,2.73,5.29,3.58,2.03.84,4.22,1.27,6.55,1.27s4.5-.43,6.51-1.27c2.01-.85,3.78-2.04,5.29-3.58,1.5-1.53,2.68-3.33,3.52-5.4.85-2.07,1.27-4.33,1.27-6.77s-.42-4.7-1.27-6.78c-.84-2.06-2.02-3.87-3.52-5.4-1.51-1.53-3.28-2.72-5.29-3.57-2.01-.85-4.18-1.27-6.51-1.27s-4.52.42-6.55,1.27c-2.04.85-3.81,2.04-5.29,3.57-1.47,1.53-2.64,3.34-3.48,5.4-.86,2.07-1.28,4.33-1.28,6.78Zm49.82,0c0,4.25-.85,8.29-2.56,12.09s-4.05,7.16-7.02,10.05c-2.98,2.89-6.5,5.18-10.56,6.85-4.07,1.67-8.42,2.52-13.07,2.52s-9.08-.84-13.11-2.52c-4.03-1.67-7.53-3.96-10.52-6.85-2.98-2.9-5.32-6.25-7.02-10.05-1.7-3.8-2.56-7.84-2.56-12.09s.85-8.29,2.56-12.1c1.7-3.8,4.05-7.15,7.02-10.04,2.99-2.9,6.49-5.18,10.52-6.86,4.04-1.66,8.4-2.51,13.11-2.51s9.01.84,13.07,2.51c4.06,1.68,7.58,3.96,10.56,6.86s5.32,6.24,7.02,10.04c1.7,3.81,2.56,7.84,2.56,12.1"/><path class="cls-1" d="m827.39,268.96v15.32h-16.18v-59.6h16.18v22.98l19.57-22.98h18.74l-21.29,24.69,22.98,34.92h-18.73l-14.9-22.57-6.38,7.25"/><path class="cls-1" d="m920.19,270.66v13.63h-46.83v-59.6h45.98v13.63h-29.8v9.36h22.99v12.78h-22.99v10.22h30.65"/><path class="cls-1" d="m633.9,332.65c0-1.15-.3-2.09-.87-2.82-.6-.72-1.36-1.35-2.3-1.85-.94-.51-2.01-.94-3.22-1.3-1.21-.35-2.46-.72-3.74-1.09-1.28-.38-2.53-.79-3.74-1.25-1.21-.45-2.28-1.05-3.22-1.78s-1.7-1.62-2.3-2.7c-.59-1.06-.87-2.39-.87-3.98,0-1.29.27-2.52.82-3.69.55-1.17,1.36-2.21,2.4-3.08,1.05-.88,2.31-1.59,3.79-2.12,1.48-.52,3.13-.79,4.99-.79s3.4.25,4.74.73c1.36.48,2.5,1.03,3.41,1.61,1.08.7,2,1.48,2.78,2.34l-2.67,2.54c-.56-.65-1.26-1.23-2.08-1.78-.71-.44-1.57-.84-2.58-1.22-1.02-.37-2.22-.55-3.6-.55-1.28,0-2.42.17-3.42.5-1,.35-1.83.79-2.51,1.36-.68.55-1.19,1.2-1.55,1.93-.35.73-.53,1.5-.53,2.31,0,1.53.5,2.71,1.5,3.54,1,.82,2.25,1.52,3.76,2.05,1.51.54,3.13,1.04,4.89,1.48,1.74.44,3.37,1.03,4.88,1.76s2.76,1.71,3.76,2.95c1.01,1.24,1.5,2.91,1.5,5.01,0,1.46-.28,2.8-.83,4.05-.55,1.24-1.36,2.32-2.42,3.23s-2.38,1.62-3.94,2.14c-1.57.5-3.36.76-5.34.76-2.14,0-3.99-.28-5.58-.83-1.58-.54-2.9-1.17-3.92-1.86-1.21-.8-2.23-1.71-3.05-2.75l2.46-2.58c.67.84,1.49,1.57,2.45,2.18.81.58,1.86,1.08,3.12,1.52,1.26.44,2.76.66,4.51.66,2.8,0,4.93-.62,6.37-1.86,1.45-1.23,2.17-2.81,2.17-4.75"/><path class="cls-1" d="m646.7,306.25h4.01v36.63h-4.01v-36.63"/><path class="cls-1" d="m692.86,306.25v36.63h-3.46l-22.95-29.57v29.57h-3.99v-36.63h3.46l22.95,29.57v-29.57h3.99"/><path class="cls-1" d="m702.14,324.56c0-2.55.5-4.93,1.5-7.17,1-2.22,2.36-4.17,4.11-5.83,1.75-1.66,3.78-2.98,6.11-3.93,2.33-.94,4.83-1.43,7.49-1.43s4.79.4,6.68,1.18c1.89.8,3.47,1.65,4.75,2.59,1.46,1.09,2.71,2.33,3.79,3.71l-2.67,2.28c-.85-1.15-1.89-2.17-3.1-3.04-1.03-.78-2.33-1.49-3.89-2.12-1.56-.62-3.42-.93-5.56-.93s-4.12.37-5.97,1.11c-1.85.75-3.46,1.78-4.83,3.1-1.38,1.31-2.45,2.87-3.23,4.66-.78,1.79-1.17,3.73-1.17,5.82s.39,4.05,1.17,5.83c.78,1.8,1.86,3.35,3.23,4.66,1.37,1.32,2.98,2.35,4.83,3.1,1.85.74,3.84,1.11,5.97,1.11s4.01-.31,5.61-.93c1.6-.63,2.94-1.32,3.99-2.11,1.25-.87,2.32-1.89,3.2-3.04l2.67,2.28c-1.1,1.41-2.41,2.66-3.94,3.76-1.31.92-2.93,1.78-4.83,2.55-1.9.77-4.14,1.16-6.71,1.16s-5.16-.48-7.49-1.43c-2.33-.96-4.36-2.27-6.11-3.93-1.75-1.66-3.11-3.61-4.11-5.84-1-2.22-1.5-4.61-1.5-7.17"/><path class="cls-1" d="m771.18,339.22v3.67h-26.14v-36.63h25.61v3.67h-21.62v12.04h17.35v3.66h-17.35v13.61h22.14"/><path class="cls-1" d="m797.81,306.25v36.63h-4.01v-29.3h-6.94v-2.4c1.61,0,2.93-.28,3.95-.8,1.04-.53,1.85-1.1,2.45-1.69.68-.7,1.21-1.51,1.6-2.43h2.94"/><path class="cls-1" d="m810.88,318c0,1.22.21,2.33.62,3.34.41,1,1.01,1.85,1.79,2.57.78.71,1.7,1.26,2.77,1.65,1.06.38,2.28.58,3.63.58s2.52-.2,3.6-.58c1.08-.39,2.02-.94,2.8-1.65.78-.72,1.38-1.57,1.79-2.57.41-1.01.61-2.12.61-3.34s-.2-2.33-.61-3.33c-.41-1.01-1.01-1.86-1.79-2.57-.78-.72-1.73-1.26-2.8-1.65-1.09-.39-2.29-.59-3.6-.59s-2.57.2-3.63.59c-1.07.39-1.99.93-2.77,1.65-.78.71-1.38,1.56-1.79,2.57-.41,1-.62,2.11-.62,3.33Zm8.53,11.8c-1.81,0-3.49-.3-5.01-.89-1.53-.61-2.85-1.43-3.97-2.49-1.12-1.07-1.99-2.31-2.62-3.75-.63-1.44-.93-3-.93-4.67s.32-3.23.97-4.67c.64-1.43,1.52-2.67,2.64-3.74,1.12-1.06,2.46-1.89,4.03-2.49,1.57-.61,3.3-.9,5.18-.9s3.56.3,5.16.9c1.57.61,2.94,1.44,4.05,2.52,1.13,1.06,2,2.32,2.65,3.76.64,1.46.97,3.02.97,4.7,0,1.11-.15,2.13-.44,3.07-.29.96-.58,1.78-.89,2.45-.4.83-.84,1.57-1.34,2.23l-11.21,17.05h-3.99l8.8-13.61c-.32.1-.68.2-1.07.27-.78.17-1.77.26-2.94.26"/><path class="cls-1" d="m842.13,324.56c0,2.4.31,4.53.92,6.37.63,1.85,1.45,3.38,2.45,4.62,1.02,1.23,2.18,2.16,3.5,2.78,1.31.63,2.68.93,4.11.93s2.73-.31,4.03-.93,2.45-1.55,3.47-2.78c1.01-1.24,1.83-2.77,2.44-4.62.63-1.84.94-3.96.94-6.37s-.32-4.52-.94-6.36c-.62-1.84-1.44-3.38-2.44-4.61-1.02-1.23-2.19-2.17-3.49-2.79-1.32-.62-2.67-.93-4.06-.93s-2.74.32-4.06.93c-1.32.63-2.49,1.56-3.5,2.79-1.01,1.23-1.83,2.77-2.45,4.61-.62,1.84-.92,3.96-.92,6.36Zm25.88,0c0,2.87-.43,5.43-1.25,7.7-.84,2.29-1.95,4.22-3.32,5.79-1.37,1.59-2.95,2.79-4.74,3.63-1.8.84-3.66,1.25-5.58,1.25s-3.84-.41-5.63-1.25c-1.81-.83-3.39-2.03-4.78-3.63-1.39-1.57-2.51-3.5-3.34-5.79-.84-2.27-1.25-4.84-1.25-7.7s.41-5.42,1.25-7.7c.83-2.27,1.95-4.2,3.34-5.78,1.39-1.58,2.97-2.79,4.78-3.63,1.79-.83,3.65-1.25,5.58-1.25s3.78.42,5.58,1.25c1.79.83,3.38,2.04,4.78,3.63,1.39,1.58,2.5,3.51,3.34,5.78.82,2.28,1.25,4.85,1.25,7.7"/><path class="cls-1" d="m877.64,318c0,1.22.2,2.33.61,3.34.41,1,1.01,1.85,1.8,2.57.78.71,1.7,1.26,2.77,1.65,1.07.38,2.28.58,3.63.58s2.52-.2,3.6-.58c1.09-.39,2.01-.94,2.8-1.65.78-.72,1.38-1.57,1.78-2.57.42-1.01.62-2.12.62-3.34s-.2-2.33-.62-3.33c-.4-1.01-1-1.86-1.78-2.57-.79-.72-1.71-1.26-2.8-1.65-1.09-.39-2.29-.59-3.6-.59s-2.56.2-3.63.59c-1.07.39-1.99.93-2.77,1.65-.79.71-1.39,1.56-1.8,2.57-.41,1-.61,2.11-.61,3.33Zm8.53,11.8c-1.82,0-3.49-.3-5.01-.89-1.53-.61-2.85-1.43-3.97-2.49-1.13-1.07-1.99-2.31-2.62-3.75s-.93-3-.93-4.67.32-3.23.97-4.67c.64-1.43,1.52-2.67,2.64-3.74,1.12-1.06,2.46-1.89,4.03-2.49,1.56-.61,3.3-.9,5.18-.9s3.56.3,5.16.9c1.57.61,2.93,1.44,4.05,2.52,1.12,1.06,2,2.32,2.64,3.76.65,1.46.98,3.02.98,4.7,0,1.11-.15,2.13-.43,3.07-.29.96-.6,1.78-.91,2.45-.39.83-.83,1.57-1.34,2.23l-11.2,17.05h-3.99l8.79-13.61c-.31.1-.67.2-1.06.27-.79.17-1.76.26-2.94.26"/><path class="cls-1" d="m964.04,245.12c0-1.7-.59-3.12-1.75-4.26-1.16-1.13-2.71-1.7-4.64-1.7h-11.07v11.92h11.07c1.93,0,3.48-.56,4.64-1.7,1.16-1.13,1.75-2.56,1.75-4.25Zm-33.63-20.44h28.1c3.17,0,6.1.52,8.77,1.57,2.66,1.06,4.95,2.51,6.85,4.34,1.91,1.85,3.4,4.01,4.47,6.47,1.08,2.47,1.62,5.16,1.62,8.05,0,3.23-.52,5.96-1.57,8.16-1.06,2.22-2.23,4.01-3.53,5.37-1.48,1.64-3.18,2.95-5.11,3.91l12.34,21.72h-17.03l-10.21-18.74h-8.52v18.74h-16.17v-59.6"/><path class="cls-1" d="m410.68,403.1c-23.81,0-45.89-4.24-66.26-12.69-20.37-8.46-38.08-20.02-53.14-34.64-15.06-14.63-26.89-31.55-35.49-50.77-8.61-19.21-12.91-39.58-12.91-61.09s4.3-41.87,12.91-61.09c8.61-19.21,20.44-36.14,35.49-50.77,15.07-14.62,32.77-26.17,53.14-34.63,20.36-8.46,42.44-12.69,66.26-12.69,21.51,0,40.15,3.15,55.93,9.46,15.77,6.32,28.97,13.2,39.59,20.66,12.32,8.88,22.8,18.93,31.4,30.11l-49.48,51.63c-5.74-7.17-12.48-13.63-20.22-19.37-6.6-4.87-14.7-9.31-24.31-13.33-9.61-4.02-20.59-6.03-32.91-6.03s-23.74,2.16-34.21,6.45c-10.47,4.3-19.57,10.33-27.32,18.06-7.75,7.75-13.77,16.86-18.07,27.34-4.3,10.46-6.46,21.86-6.46,34.2s2.16,23.74,6.46,34.21c4.3,10.47,10.32,19.57,18.07,27.33,7.74,7.73,16.84,13.76,27.32,18.06,10.46,4.3,21.86,6.45,34.21,6.45,8.61,0,16.13-1,22.58-3.01,6.46-2,11.83-4.16,16.14-6.45,5.16-2.87,9.46-6.17,12.9-9.9v-34.28h-47.32v-51.62h129.08v118.18c-9.76,11.18-21.24,21.22-34.42,30.11-11.48,7.46-25.46,14.34-41.95,20.65-16.5,6.31-35.49,9.47-57.01,9.47"/><path class="cls-2" d="m97.45,400.46V92.98h87.46v229.22h115.21v78.25H97.45"/></svg>